<svg width="194" height="34" viewBox="0 0 194 34" fill="none" xmlns="http://www.w3.org/2000/svg">
<path d="M21.041 3.69922C21.0957 3.80859 21.123 4.19141 21.123 4.84766C21.1504 5.50391 21.1504 6.29688 21.123 7.22656C21.123 8.15625 21.0957 9.1543 21.041 10.2207C20.9863 11.2598 20.918 12.2441 20.8359 13.1738C20.7812 13.6934 20.6855 14.4727 20.5488 15.5117C20.4395 16.5508 20.3027 17.6992 20.1387 18.957C19.9746 20.2148 19.7969 21.5137 19.6055 22.8535C19.4414 24.166 19.2773 25.3828 19.1133 26.5039C18.9492 27.5977 18.7988 28.5137 18.6621 29.252C18.5527 29.9902 18.4707 30.3867 18.416 30.4414C18.3066 30.5234 18.1289 30.7285 17.8828 31.0566C17.6367 31.3574 17.3633 31.6719 17.0625 32C16.7891 32.3008 16.5293 32.5469 16.2832 32.7383C16.0371 32.9297 15.873 32.957 15.791 32.8203C15.7363 32.5469 15.709 31.6992 15.709 30.2773C15.709 29.6758 15.709 28.9238 15.709 28.0215C15.7363 27.0918 15.7637 25.9707 15.791 24.6582C15.8457 23.3457 15.9141 21.8145 15.9961 20.0645C16.0781 18.3145 16.1738 16.291 16.2832 13.9941C15.7363 15.8535 15.2441 17.4941 14.8066 18.916C14.3965 20.3379 14.0273 21.582 13.6992 22.6484C13.3984 23.6875 13.1387 24.5762 12.9199 25.3145C12.7012 26.0254 12.5098 26.6133 12.3457 27.0781C11.9902 28.1719 11.7578 28.8145 11.6484 29.0059C11.5391 29.0332 11.3613 28.9512 11.1152 28.7598C10.8965 28.5684 10.6367 28.2949 10.3359 27.9395C10.0625 27.5566 9.77539 27.1055 9.47461 26.5859C9.20117 26.0664 8.96875 25.4922 8.77734 24.8633C8.58594 24.2891 8.33984 23.5234 8.03906 22.5664C7.76562 21.7461 7.41016 20.6797 6.97266 19.3672C6.53516 18.0273 6.00195 16.3594 5.37305 14.3633C5.53711 16.6055 5.67383 18.5742 5.7832 20.2695C5.89258 21.9648 5.97461 23.4414 6.0293 24.6992C6.11133 25.957 6.16602 27.0234 6.19336 27.8984C6.24805 28.7461 6.27539 29.457 6.27539 30.0312C6.30273 31.3438 6.26172 32.0957 6.15234 32.2871C5.87891 32.2871 5.57812 32.1641 5.25 31.918C4.94922 31.6445 4.64844 31.3301 4.34766 30.9746C4.07422 30.5918 3.82812 30.2227 3.60938 29.8672C3.41797 29.5117 3.30859 29.252 3.28125 29.0879C3.25391 28.9785 3.17188 28.4727 3.03516 27.5703C2.89844 26.668 2.73438 25.5195 2.54297 24.125C2.37891 22.7031 2.1875 21.1172 1.96875 19.3672C1.77734 17.5898 1.58594 15.7852 1.39453 13.9531C1.23047 12.1211 1.09375 10.3438 0.984375 8.62109C0.875 6.87109 0.820312 5.3125 0.820312 3.94531C0.820312 3.72656 1.09375 3.43945 1.64062 3.08398C2.1875 2.70117 2.80273 2.3457 3.48633 2.01758C4.19727 1.66211 4.85352 1.36133 5.45508 1.11523C6.05664 0.841797 6.42578 0.705078 6.5625 0.705078C6.67188 0.705078 6.78125 1.01953 6.89062 1.64844C7.02734 2.27734 7.17773 3.07031 7.3418 4.02734C7.50586 4.98438 7.68359 6.05078 7.875 7.22656C8.06641 8.40234 8.28516 9.52344 8.53125 10.5898C8.72266 11.6836 8.95508 12.8184 9.22852 13.9941C9.44727 15.0059 9.69336 16.127 9.9668 17.3574C10.2676 18.5605 10.5957 19.7363 10.9512 20.8848C11.334 19.2168 11.6758 17.7129 11.9766 16.373C12.3047 15.0059 12.5918 13.8438 12.8379 12.8867C13.1387 11.7656 13.3984 10.7676 13.6172 9.89258C14.1094 7.75977 14.5879 6.07812 15.0527 4.84766C15.5449 3.61719 15.8594 2.89258 15.9961 2.67383C16.0781 2.56445 16.3652 2.53711 16.8574 2.5918C17.377 2.64648 17.9375 2.74219 18.5391 2.87891C19.1406 2.98828 19.6875 3.125 20.1797 3.28906C20.6992 3.45312 20.9863 3.58984 21.041 3.69922ZM33.8789 10.4258C34.043 10.6172 34.1934 10.8223 34.3301 11.041C34.4668 11.2324 34.5898 11.5059 34.6992 11.8613C34.8086 12.1895 34.8906 12.627 34.9453 13.1738C35.0273 13.7207 35.0684 14.4316 35.0684 15.3066C35.0684 16.7012 35.0273 18.1094 34.9453 19.5312C34.8906 20.9258 34.8359 22.1562 34.7812 23.2227C34.7539 24.1797 34.7266 25.0684 34.6992 25.8887C34.6719 26.709 34.6445 27.4336 34.6172 28.0625C34.5898 28.6641 34.5488 29.1426 34.4941 29.498C34.4668 29.8535 34.4395 30.0449 34.4121 30.0723C34.3027 30.1543 34.125 30.127 33.8789 29.9902C33.6602 29.8262 33.4141 29.6211 33.1406 29.375C32.8945 29.1289 32.6621 28.8691 32.4434 28.5957C32.2246 28.3223 32.0879 28.1035 32.0332 27.9395C32.0332 27.8027 31.9922 27.4062 31.9102 26.75C31.2539 27.1328 30.5293 27.4062 29.7363 27.5703C28.9434 27.707 28.1504 27.7617 27.3574 27.7344C26.5918 27.6797 25.8809 27.5293 25.2246 27.2832C24.5684 27.0371 24.0762 26.709 23.748 26.2988C23.6113 26.1348 23.4883 25.8887 23.3789 25.5605C23.2969 25.2324 23.2148 24.8633 23.1328 24.4531C23.0781 24.0156 23.0234 23.5645 22.9688 23.0996C22.9141 22.6074 22.873 22.1562 22.8457 21.7461C22.791 20.6797 22.9277 19.7637 23.2559 18.998C23.584 18.2051 24.1855 17.6172 25.0605 17.2344C25.4434 17.0703 25.9492 16.9883 26.5781 16.9883C27.2344 16.9609 27.877 16.9883 28.5059 17.0703C29.1621 17.125 29.75 17.207 30.2695 17.3164C30.7891 17.3984 31.1172 17.4668 31.2539 17.5215C31.1445 16.127 31.0625 14.9238 31.0078 13.9121C30.9531 12.873 30.8438 12.2031 30.6797 11.9023C30.543 11.7109 30.3789 11.5195 30.1875 11.3281C30.0234 11.1914 29.8047 11.041 29.5312 10.877C29.2578 10.7129 28.9297 10.5898 28.5469 10.5078C28.2461 10.4531 27.9727 10.5762 27.7266 10.877C27.5078 11.1504 27.3027 11.6426 27.1113 12.3535C26.9473 13.0371 26.8516 14.0898 26.8242 15.5117C25.8672 15.5391 25.1289 15.5391 24.6094 15.5117C24.1172 15.457 23.748 15.4023 23.502 15.3477C23.2012 15.293 23.0234 15.2246 22.9688 15.1426C22.9141 15.0332 22.9414 14.6367 23.0508 13.9531C23.1602 13.2422 23.3105 12.4766 23.502 11.6562C23.7207 10.8359 23.9668 10.0566 24.2402 9.31836C24.541 8.58008 24.8555 8.11523 25.1836 7.92383C25.8398 7.54102 26.6191 7.4043 27.5215 7.51367C28.4512 7.62305 29.3535 7.85547 30.2285 8.21094C31.1035 8.56641 31.8828 8.96289 32.5664 9.40039C33.25 9.83789 33.6875 10.1797 33.8789 10.4258ZM31.3359 22.4023C31.3359 22.2656 31.3496 22.0879 31.377 21.8691C31.4043 21.623 31.418 21.377 31.418 21.1309C31.418 20.8848 31.4043 20.6523 31.377 20.4336C31.377 20.2148 31.3496 20.0508 31.2949 19.9414C31.2129 19.7773 30.9668 19.6406 30.5566 19.5312C30.1738 19.4219 29.7363 19.3535 29.2441 19.3262C28.752 19.2715 28.2871 19.2578 27.8496 19.2852C27.4121 19.2852 27.1113 19.3398 26.9473 19.4492C26.7285 19.5859 26.5645 19.7773 26.4551 20.0234C26.373 20.2695 26.3184 20.6523 26.291 21.1719C26.291 21.418 26.3047 21.6777 26.332 21.9512C26.3594 22.2246 26.3867 22.498 26.4141 22.7715C26.4688 23.0176 26.5234 23.2363 26.5781 23.4277C26.6602 23.6191 26.7422 23.7422 26.8242 23.7969C27.0156 23.9336 27.3438 24.0566 27.8086 24.166C28.3008 24.248 28.793 24.2754 29.2852 24.248C29.7773 24.1934 30.2285 24.0293 30.6387 23.7559C31.0488 23.4824 31.2812 23.0312 31.3359 22.4023ZM46.5938 9.64648C46.8125 9.7832 47.0176 10.0566 47.209 10.4668C47.4277 10.8496 47.6191 11.3008 47.7832 11.8203C47.9746 12.3125 48.125 12.8457 48.2344 13.4199C48.3711 13.9941 48.4805 14.5273 48.5625 15.0195C48.6719 15.5117 48.7402 15.9355 48.7676 16.291C48.7949 16.6191 48.7949 16.8242 48.7676 16.9062C48.7129 17.0156 48.5488 17.125 48.2754 17.2344C48.0293 17.3438 47.6602 17.4668 47.168 17.6035C46.6758 17.7402 45.9922 17.8906 45.1172 18.0547C45.0625 16.5508 44.9531 15.416 44.7891 14.6504C44.625 13.8574 44.4473 13.2969 44.2559 12.9688C44.0371 12.5859 43.8047 12.3945 43.5586 12.3945C43.3125 12.5039 43.0938 12.6406 42.9023 12.8047C42.7109 12.9414 42.5469 13.0918 42.4102 13.2559C42.2461 13.4473 42.0957 13.6523 41.959 13.8711C41.9043 13.9531 41.8496 14.1445 41.7949 14.4453C41.7402 14.7461 41.6855 15.1973 41.6309 15.7988C41.6309 15.9902 41.6172 16.3867 41.5898 16.9883C41.5898 17.5898 41.5762 18.2871 41.5488 19.0801C41.5488 19.873 41.5352 20.707 41.5078 21.582C41.5078 22.457 41.4941 23.2773 41.4668 24.043C41.4668 24.7812 41.4531 25.4102 41.4258 25.9297C41.4258 26.4492 41.4121 26.75 41.3848 26.832C41.3301 26.9688 41.1934 27.1602 40.9746 27.4062C40.7559 27.6523 40.5098 27.8848 40.2363 28.1035C39.9629 28.2949 39.7031 28.459 39.457 28.5957C39.2109 28.7051 39.0469 28.6914 38.9648 28.5547C38.8828 28.4727 38.8008 28.1172 38.7188 27.4883C38.6367 26.8594 38.541 26.0938 38.4316 25.1914C38.3496 24.2617 38.2539 23.25 38.1445 22.1562C38.0352 21.0625 37.9395 20.0098 37.8574 18.998C37.7754 17.9863 37.707 17.084 37.6523 16.291C37.5977 15.4707 37.5566 14.8828 37.5293 14.5273C37.502 14.0078 37.4746 13.4336 37.4473 12.8047C37.4199 12.1758 37.3926 11.5879 37.3652 11.041C37.3652 10.4668 37.3652 9.97461 37.3652 9.56445C37.3926 9.12695 37.4473 8.86719 37.5293 8.78516C37.584 8.70312 37.7617 8.68945 38.0625 8.74414C38.3906 8.77148 38.7324 8.85352 39.0879 8.99023C39.4707 9.09961 39.8262 9.25 40.1543 9.44141C40.4824 9.63281 40.7012 9.81055 40.8105 9.97461C40.8926 10.1113 40.9746 10.3164 41.0566 10.5898C41.5762 10.3164 42.0684 10.0703 42.5332 9.85156C43.0254 9.60547 43.4902 9.42773 43.9277 9.31836C44.3926 9.20898 44.8438 9.18164 45.2812 9.23633C45.7188 9.26367 46.1562 9.40039 46.5938 9.64648ZM52.7461 26.873C52.3633 25.4785 51.9395 23.8379 51.4746 21.9512C51.0918 20.3379 50.627 18.3828 50.0801 16.0859C49.5605 13.7617 49 11.1094 48.3984 8.12891C48.3984 7.9375 48.5215 7.70508 48.7676 7.43164C48.9863 7.13086 49.2598 6.85742 49.5879 6.61133C49.916 6.33789 50.2578 6.11914 50.6133 5.95508C50.9688 5.76367 51.2832 5.66797 51.5566 5.66797C51.666 5.83203 51.8574 6.55664 52.1309 7.8418C52.2402 8.38867 52.3633 9.08594 52.5 9.93359C52.6641 10.7539 52.8418 11.7793 53.0332 13.0098C53.2246 14.2402 53.4297 15.6895 53.6484 17.3574C53.8945 18.998 54.168 20.8984 54.4688 23.0586C54.6875 21.582 54.8926 20.1875 55.084 18.875C55.3027 17.5625 55.4941 16.4004 55.6582 15.3887C55.8496 14.2129 56.0273 13.1191 56.1914 12.1074C56.2734 11.4785 56.3691 10.8223 56.4785 10.1387C56.5879 9.42773 56.6973 8.78516 56.8066 8.21094C56.9434 7.63672 57.0801 7.1582 57.2168 6.77539C57.3809 6.36523 57.5449 6.16016 57.709 6.16016C57.873 6.16016 58.1191 6.20117 58.4473 6.2832C58.7754 6.33789 59.1035 6.41992 59.4316 6.5293C59.7871 6.63867 60.1016 6.77539 60.375 6.93945C60.6484 7.07617 60.7852 7.22656 60.7852 7.39062C60.7852 7.47266 60.7031 7.88281 60.5391 8.62109C60.375 9.33203 60.1562 10.248 59.8828 11.3691C59.6094 12.4902 59.2949 13.7617 58.9395 15.1836C58.584 16.5781 58.2148 18 57.832 19.4492C57.4766 20.8984 57.1074 22.3203 56.7246 23.7148C56.3418 25.1094 55.9863 26.3535 55.6582 27.4473C55.3574 28.5137 55.0977 29.3887 54.8789 30.0723C54.6602 30.7285 54.5098 31.0566 54.4277 31.0566C54.3457 31.0566 54.1133 30.6875 53.7305 29.9492C53.375 29.1836 53.0469 28.1582 52.7461 26.873ZM64.3945 20.1465C64.832 19.9824 65.3242 19.8047 65.8711 19.6133C66.4453 19.3945 66.9922 19.2031 67.5117 19.0391C68.0312 18.8477 68.4961 18.6836 68.9062 18.5469C69.3164 18.4102 69.6172 18.3008 69.8086 18.2188C69.7812 17.918 69.7402 17.5762 69.6855 17.1934C69.6582 16.7832 69.6172 16.4004 69.5625 16.0449C69.5078 15.6621 69.4395 15.334 69.3574 15.0605C69.2754 14.7871 69.1934 14.623 69.1113 14.5684C68.8926 14.4863 68.5234 14.418 68.0039 14.3633C67.5117 14.2812 66.9922 14.2949 66.4453 14.4043C65.9258 14.5137 65.4473 14.7188 65.0098 15.0195C64.5723 15.3203 64.3262 15.7988 64.2715 16.4551C64.2168 16.8926 64.2031 17.4395 64.2305 18.0957C64.2578 18.752 64.3125 19.4355 64.3945 20.1465ZM73.2949 20.8027C73.2676 20.8574 72.9395 20.9668 72.3105 21.1309C71.6816 21.2949 70.9297 21.4727 70.0547 21.6641C69.1797 21.8281 68.25 22.0059 67.2656 22.1973C66.2812 22.3613 65.4336 22.498 64.7227 22.6074C64.8594 23.7012 65.0234 24.6855 65.2148 25.5605C65.4062 26.4082 65.5703 26.9414 65.707 27.1602C65.8438 27.3516 66.0215 27.5293 66.2402 27.6934C66.4316 27.8301 66.6641 27.9668 66.9375 28.1035C67.2383 28.2129 67.5938 28.2949 68.0039 28.3496C68.3047 28.4316 68.5918 28.3223 68.8652 28.0215C69.084 27.748 69.2754 27.2695 69.4395 26.5859C69.6309 25.9023 69.7266 24.8223 69.7266 23.3457C70.5742 23.209 71.2305 23.127 71.6953 23.0996C72.1875 23.0723 72.543 23.0723 72.7617 23.0996C73.0352 23.127 73.1992 23.168 73.2539 23.2227C73.2812 23.3047 73.2812 23.5098 73.2539 23.8379C73.2266 24.166 73.1582 24.5762 73.0488 25.0684C72.9668 25.5332 72.8574 26.0527 72.7207 26.627C72.6113 27.1738 72.4746 27.707 72.3105 28.2266C72.1465 28.7188 71.9688 29.1699 71.7773 29.5801C71.5859 29.9629 71.3809 30.2363 71.1621 30.4004C70.5059 30.8926 69.6855 31.1387 68.7012 31.1387C67.7168 31.1113 66.7461 30.9746 65.7891 30.7285C64.832 30.4551 63.9707 30.1406 63.2051 29.7852C62.4395 29.4023 61.9609 29.0879 61.7695 28.8418C61.6328 28.6777 61.5098 28.2676 61.4004 27.6113C61.291 26.9277 61.1953 26.1074 61.1133 25.1504C61.0586 24.1934 61.0176 23.1406 60.9902 21.9922C60.9629 20.8438 60.9766 19.7227 61.0312 18.6289C61.1133 17.5352 61.2227 16.5234 61.3594 15.5938C61.5234 14.6641 61.7422 13.9121 62.0156 13.3379C62.4258 12.5176 63.0957 11.8477 64.0254 11.3281C64.9551 10.8086 65.9395 10.4531 66.9785 10.2617C68.0176 10.0703 69.002 10.043 69.9316 10.1797C70.8887 10.3164 71.5996 10.6172 72.0645 11.082C72.3379 11.3555 72.584 11.9023 72.8027 12.7227C73.0215 13.5156 73.1582 14.4863 73.2129 15.6348C73.2129 15.7441 73.2266 16.0586 73.2539 16.5781C73.2812 17.0977 73.2949 17.6582 73.2949 18.2598C73.3223 18.834 73.3359 19.3809 73.3359 19.9004C73.3359 20.4199 73.3223 20.7207 73.2949 20.8027ZM79.3652 31.7539C79.1738 31.8086 78.9551 31.7402 78.709 31.5488C78.4629 31.3574 78.2168 31.125 77.9707 30.8516C77.752 30.5508 77.5605 30.2363 77.3965 29.9082C77.2324 29.5801 77.123 29.3066 77.0684 29.0879C76.877 26.6816 76.7129 24.5352 76.5762 22.6484C76.4668 20.7344 76.3711 19.0391 76.2891 17.5625C76.207 16.0859 76.1387 14.8145 76.084 13.748C76.0566 12.6543 76.043 11.7246 76.043 10.959C76.0156 9.18164 76.043 7.95117 76.125 7.26758C76.207 6.77539 76.4258 6.2832 76.7812 5.79102C77.1641 5.29883 77.5605 4.875 77.9707 4.51953C78.4082 4.16406 78.8047 3.89062 79.1602 3.69922C79.543 3.50781 79.7891 3.45312 79.8984 3.53516C80.0078 3.61719 80.0898 4.08203 80.1445 4.92969C80.1992 5.75 80.2402 6.83008 80.2676 8.16992C80.2949 9.50977 80.2949 11.0137 80.2676 12.6816C80.2676 14.3496 80.2402 16.0586 80.1855 17.8086C80.1582 19.5586 80.1172 21.2676 80.0625 22.9355C80.0078 24.6035 79.9395 26.0938 79.8574 27.4062C79.7754 28.6914 79.6934 29.7305 79.6113 30.5234C79.5293 31.3164 79.4473 31.7266 79.3652 31.7539ZM103.4 0.417969C103.482 0.527344 103.578 1.08789 103.688 2.09961C103.824 3.08398 103.961 4.31445 104.098 5.79102C104.262 7.26758 104.426 8.88086 104.59 10.6309C104.754 12.3535 104.904 14.0215 105.041 15.6348C105.178 17.2207 105.301 18.6426 105.41 19.9004C105.52 21.1309 105.602 21.9922 105.656 22.4844C105.738 23.2227 105.861 24.125 106.025 25.1914C106.217 26.2578 106.395 27.3105 106.559 28.3496C106.75 29.3613 106.9 30.25 107.01 31.0156C107.119 31.7812 107.133 32.2324 107.051 32.3691C106.969 32.5059 106.695 32.4922 106.23 32.3281C105.766 32.1641 105.26 31.9316 104.713 31.6309C104.166 31.3301 103.646 31.002 103.154 30.6465C102.689 30.291 102.389 29.9902 102.252 29.7441C102.115 29.4707 101.965 29.0195 101.801 28.3906C101.637 27.7344 101.459 26.873 101.268 25.8066C100.912 26.4629 100.516 27.1328 100.078 27.8164C99.6406 28.5 99.2168 29.1289 98.8066 29.7031C98.3965 30.2773 98.0137 30.7559 97.6582 31.1387C97.3301 31.4941 97.084 31.6582 96.9199 31.6309C96.6465 31.6035 96.2227 31.248 95.6484 30.5645C95.1016 29.8535 94.541 29.0605 93.9668 28.1855C93.3926 27.2832 92.873 26.4355 92.4082 25.6426C91.9707 24.8223 91.7246 24.2754 91.6699 24.002C91.6426 23.8379 91.6289 23.4688 91.6289 22.8945C91.6289 22.293 91.6289 21.582 91.6289 20.7617C91.6562 19.9414 91.6836 19.0527 91.7109 18.0957C91.7656 17.1113 91.8066 16.1543 91.834 15.2246C91.8887 14.2676 91.9297 13.3652 91.957 12.5176C92.0117 11.6699 92.0664 10.9727 92.1211 10.4258C92.1758 9.57812 92.2441 8.70312 92.3262 7.80078C92.4355 6.87109 92.5312 6.00977 92.6133 5.2168C92.7227 4.42383 92.8184 3.75391 92.9004 3.20703C93.0098 2.63281 93.1055 2.27734 93.1875 2.14062C93.2422 2.03125 93.4062 1.96289 93.6797 1.93555C93.9805 1.9082 94.3086 1.93555 94.6641 2.01758C95.0195 2.07227 95.3477 2.18164 95.6484 2.3457C95.9492 2.48242 96.1543 2.66016 96.2637 2.87891C96.3184 3.01563 96.3457 3.5625 96.3457 4.51953C96.373 5.44922 96.3867 6.57031 96.3867 7.88281C96.3867 9.19531 96.373 10.6172 96.3457 12.1484C96.3457 13.6523 96.332 15.0742 96.3047 16.4141C96.2773 17.7539 96.25 18.9023 96.2227 19.8594C96.2227 20.7891 96.2227 21.3359 96.2227 21.5C96.2227 21.8008 96.4277 22.2793 96.8379 22.9355C97.2754 23.5645 97.6719 24.3301 98.0273 25.2324L100.611 22.3203C100.584 21.5547 100.557 20.5703 100.529 19.3672C100.529 18.1641 100.516 16.8926 100.488 15.5527C100.461 14.1855 100.434 12.8184 100.406 11.4512C100.406 10.0566 100.406 8.78516 100.406 7.63672C100.406 6.48828 100.406 5.54492 100.406 4.80664C100.434 4.04102 100.461 3.60352 100.488 3.49414C100.57 3.27539 100.734 2.96094 100.98 2.55078C101.254 2.11328 101.541 1.7168 101.842 1.36133C102.143 0.978516 102.443 0.677734 102.744 0.458984C103.045 0.240234 103.264 0.226563 103.4 0.417969ZM120.34 14.8145C120.34 15.252 120.285 15.8809 120.176 16.7012C120.094 17.5215 119.971 18.4238 119.807 19.4082C119.643 20.3652 119.465 21.3633 119.273 22.4023C119.109 23.4141 118.932 24.3438 118.74 25.1914C118.576 26.0391 118.426 26.75 118.289 27.3242C118.18 27.8984 118.111 28.2129 118.084 28.2676C118.029 28.3496 117.879 28.4043 117.633 28.4316C117.414 28.4316 117.154 28.4043 116.854 28.3496C116.58 28.2949 116.32 28.2129 116.074 28.1035C115.855 27.9941 115.719 27.8574 115.664 27.6934C115.637 27.584 115.623 27.2012 115.623 26.5449C115.65 25.8887 115.678 25.1094 115.705 24.207C115.76 23.2773 115.814 22.293 115.869 21.2539C115.924 20.1875 115.979 19.2031 116.033 18.3008C116.115 17.3711 116.17 16.5781 116.197 15.9219C116.252 15.2656 116.279 14.8691 116.279 14.7324C116.279 14.2402 116.225 13.7754 116.115 13.3379C116.033 12.873 115.924 12.4766 115.787 12.1484C115.65 11.8203 115.486 11.5742 115.295 11.4102C115.131 11.2188 114.98 11.1504 114.844 11.2051C114.488 11.2598 114.188 11.3555 113.941 11.4922C113.695 11.6016 113.49 11.7246 113.326 11.8613C113.135 12.0254 112.984 12.2168 112.875 12.4355C112.848 12.4902 112.793 12.6543 112.711 12.9277C112.656 13.2012 112.629 13.5156 112.629 13.8711C112.629 13.9805 112.629 14.377 112.629 15.0605C112.629 15.7168 112.615 16.5098 112.588 17.4395C112.588 18.3691 112.574 19.3809 112.547 20.4746C112.547 21.541 112.533 22.5391 112.506 23.4688C112.506 24.3711 112.492 25.1504 112.465 25.8066C112.438 26.4629 112.41 26.832 112.383 26.9141C112.328 27.0781 112.191 27.3105 111.973 27.6113C111.754 27.8848 111.508 28.1445 111.234 28.3906C110.961 28.6367 110.701 28.8281 110.455 28.9648C110.209 29.0742 110.045 29.0469 109.963 28.8828C109.881 28.8008 109.799 28.4043 109.717 27.6934C109.635 26.9551 109.539 26.0664 109.43 25.0273C109.348 23.9609 109.252 22.8125 109.143 21.582C109.033 20.3242 108.938 19.1211 108.855 17.9727C108.773 16.8242 108.705 15.7852 108.65 14.8555C108.596 13.9258 108.555 13.2559 108.527 12.8457C108.5 12.2715 108.473 11.6289 108.445 10.918C108.418 10.1797 108.391 9.49609 108.363 8.86719C108.363 8.21094 108.363 7.65039 108.363 7.18555C108.391 6.69336 108.445 6.39258 108.527 6.2832C108.582 6.17383 108.76 6.14648 109.061 6.20117C109.389 6.25586 109.73 6.36523 110.086 6.5293C110.469 6.66602 110.824 6.84375 111.152 7.0625C111.48 7.25391 111.699 7.44531 111.809 7.63672C111.863 7.80078 111.932 7.99219 112.014 8.21094C112.096 8.40234 112.164 8.73047 112.219 9.19531C112.684 8.92188 113.189 8.67578 113.736 8.45703C114.283 8.21094 114.816 8.0332 115.336 7.92383C115.883 7.78711 116.402 7.74609 116.895 7.80078C117.387 7.82812 117.824 7.96484 118.207 8.21094C118.453 8.40234 118.699 8.73047 118.945 9.19531C119.219 9.66016 119.451 10.207 119.643 10.8359C119.861 11.4648 120.025 12.1348 120.135 12.8457C120.271 13.5293 120.34 14.1855 120.34 14.8145ZM126.984 14.3633C127.039 14.5 127.066 14.9375 127.066 15.6758C127.094 16.3867 127.094 17.2617 127.066 18.3008C127.066 19.3125 127.039 20.4062 126.984 21.582C126.93 22.7305 126.861 23.8242 126.779 24.8633C126.725 25.875 126.656 26.75 126.574 27.4883C126.492 28.1992 126.41 28.623 126.328 28.7598C126.082 29.1426 125.713 29.3887 125.221 29.498C124.729 29.5801 124.373 29.5938 124.154 29.5391C124.045 29.5391 123.922 29.2246 123.785 28.5957C123.676 27.9668 123.566 27.1738 123.457 26.2168C123.348 25.2598 123.252 24.2207 123.17 23.0996C123.088 21.9785 123.02 20.9121 122.965 19.9004C122.91 18.8613 122.883 17.959 122.883 17.1934C122.883 16.4277 122.91 15.9355 122.965 15.7168C123.047 15.3613 123.279 15.0469 123.662 14.7734C124.072 14.5 124.496 14.2949 124.934 14.1582C125.398 14.0215 125.822 13.9668 126.205 13.9941C126.615 13.9941 126.875 14.1172 126.984 14.3633ZM127.189 7.71875C127.299 7.9375 127.34 8.23828 127.312 8.62109C127.312 9.00391 127.271 9.40039 127.189 9.81055C127.107 10.2207 126.998 10.6172 126.861 11C126.725 11.3828 126.588 11.6836 126.451 11.9023C126.178 12.2852 125.768 12.5312 125.221 12.6406C124.701 12.7227 124.318 12.7363 124.072 12.6816C123.881 12.6543 123.689 12.5312 123.498 12.3125C123.307 12.0664 123.143 11.7793 123.006 11.4512C122.869 11.0957 122.773 10.7129 122.719 10.3027C122.664 9.89258 122.678 9.50977 122.76 9.1543C122.842 8.79883 123.102 8.48438 123.539 8.21094C123.977 7.91016 124.441 7.69141 124.934 7.55469C125.426 7.39062 125.891 7.32227 126.328 7.34961C126.766 7.34961 127.053 7.47266 127.189 7.71875ZM132.727 26.873C132.344 25.4785 131.92 23.8379 131.455 21.9512C131.072 20.3379 130.607 18.3828 130.061 16.0859C129.541 13.7617 128.98 11.1094 128.379 8.12891C128.379 7.9375 128.502 7.70508 128.748 7.43164C128.967 7.13086 129.24 6.85742 129.568 6.61133C129.896 6.33789 130.238 6.11914 130.594 5.95508C130.949 5.76367 131.264 5.66797 131.537 5.66797C131.646 5.83203 131.838 6.55664 132.111 7.8418C132.221 8.38867 132.344 9.08594 132.48 9.93359C132.645 10.7539 132.822 11.7793 133.014 13.0098C133.205 14.2402 133.41 15.6895 133.629 17.3574C133.875 18.998 134.148 20.8984 134.449 23.0586C134.668 21.582 134.873 20.1875 135.064 18.875C135.283 17.5625 135.475 16.4004 135.639 15.3887C135.83 14.2129 136.008 13.1191 136.172 12.1074C136.254 11.4785 136.35 10.8223 136.459 10.1387C136.568 9.42773 136.678 8.78516 136.787 8.21094C136.924 7.63672 137.061 7.1582 137.197 6.77539C137.361 6.36523 137.525 6.16016 137.689 6.16016C137.854 6.16016 138.1 6.20117 138.428 6.2832C138.756 6.33789 139.084 6.41992 139.412 6.5293C139.768 6.63867 140.082 6.77539 140.355 6.93945C140.629 7.07617 140.766 7.22656 140.766 7.39062C140.766 7.47266 140.684 7.88281 140.52 8.62109C140.355 9.33203 140.137 10.248 139.863 11.3691C139.59 12.4902 139.275 13.7617 138.92 15.1836C138.564 16.5781 138.195 18 137.812 19.4492C137.457 20.8984 137.088 22.3203 136.705 23.7148C136.322 25.1094 135.967 26.3535 135.639 27.4473C135.338 28.5137 135.078 29.3887 134.859 30.0723C134.641 30.7285 134.49 31.0566 134.408 31.0566C134.326 31.0566 134.094 30.6875 133.711 29.9492C133.355 29.1836 133.027 28.1582 132.727 26.873ZM144.375 20.1465C144.812 19.9824 145.305 19.8047 145.852 19.6133C146.426 19.3945 146.973 19.2031 147.492 19.0391C148.012 18.8477 148.477 18.6836 148.887 18.5469C149.297 18.4102 149.598 18.3008 149.789 18.2188C149.762 17.918 149.721 17.5762 149.666 17.1934C149.639 16.7832 149.598 16.4004 149.543 16.0449C149.488 15.6621 149.42 15.334 149.338 15.0605C149.256 14.7871 149.174 14.623 149.092 14.5684C148.873 14.4863 148.504 14.418 147.984 14.3633C147.492 14.2812 146.973 14.2949 146.426 14.4043C145.906 14.5137 145.428 14.7188 144.99 15.0195C144.553 15.3203 144.307 15.7988 144.252 16.4551C144.197 16.8926 144.184 17.4395 144.211 18.0957C144.238 18.752 144.293 19.4355 144.375 20.1465ZM153.275 20.8027C153.248 20.8574 152.92 20.9668 152.291 21.1309C151.662 21.2949 150.91 21.4727 150.035 21.6641C149.16 21.8281 148.23 22.0059 147.246 22.1973C146.262 22.3613 145.414 22.498 144.703 22.6074C144.84 23.7012 145.004 24.6855 145.195 25.5605C145.387 26.4082 145.551 26.9414 145.688 27.1602C145.824 27.3516 146.002 27.5293 146.221 27.6934C146.412 27.8301 146.645 27.9668 146.918 28.1035C147.219 28.2129 147.574 28.2949 147.984 28.3496C148.285 28.4316 148.572 28.3223 148.846 28.0215C149.064 27.748 149.256 27.2695 149.42 26.5859C149.611 25.9023 149.707 24.8223 149.707 23.3457C150.555 23.209 151.211 23.127 151.676 23.0996C152.168 23.0723 152.523 23.0723 152.742 23.0996C153.016 23.127 153.18 23.168 153.234 23.2227C153.262 23.3047 153.262 23.5098 153.234 23.8379C153.207 24.166 153.139 24.5762 153.029 25.0684C152.947 25.5332 152.838 26.0527 152.701 26.627C152.592 27.1738 152.455 27.707 152.291 28.2266C152.127 28.7188 151.949 29.1699 151.758 29.5801C151.566 29.9629 151.361 30.2363 151.143 30.4004C150.486 30.8926 149.666 31.1387 148.682 31.1387C147.697 31.1113 146.727 30.9746 145.77 30.7285C144.812 30.4551 143.951 30.1406 143.186 29.7852C142.42 29.4023 141.941 29.0879 141.75 28.8418C141.613 28.6777 141.49 28.2676 141.381 27.6113C141.271 26.9277 141.176 26.1074 141.094 25.1504C141.039 24.1934 140.998 23.1406 140.971 21.9922C140.943 20.8438 140.957 19.7227 141.012 18.6289C141.094 17.5352 141.203 16.5234 141.34 15.5938C141.504 14.6641 141.723 13.9121 141.996 13.3379C142.406 12.5176 143.076 11.8477 144.006 11.3281C144.936 10.8086 145.92 10.4531 146.959 10.2617C147.998 10.0703 148.982 10.043 149.912 10.1797C150.869 10.3164 151.58 10.6172 152.045 11.082C152.318 11.3555 152.564 11.9023 152.783 12.7227C153.002 13.5156 153.139 14.4863 153.193 15.6348C153.193 15.7441 153.207 16.0586 153.234 16.5781C153.262 17.0977 153.275 17.6582 153.275 18.2598C153.303 18.834 153.316 19.3809 153.316 19.9004C153.316 20.4199 153.303 20.7207 153.275 20.8027ZM164.842 9.64648C165.061 9.7832 165.266 10.0566 165.457 10.4668C165.676 10.8496 165.867 11.3008 166.031 11.8203C166.223 12.3125 166.373 12.8457 166.482 13.4199C166.619 13.9941 166.729 14.5273 166.811 15.0195C166.92 15.5117 166.988 15.9355 167.016 16.291C167.043 16.6191 167.043 16.8242 167.016 16.9062C166.961 17.0156 166.797 17.125 166.523 17.2344C166.277 17.3438 165.908 17.4668 165.416 17.6035C164.924 17.7402 164.24 17.8906 163.365 18.0547C163.311 16.5508 163.201 15.416 163.037 14.6504C162.873 13.8574 162.695 13.2969 162.504 12.9688C162.285 12.5859 162.053 12.3945 161.807 12.3945C161.561 12.5039 161.342 12.6406 161.15 12.8047C160.959 12.9414 160.795 13.0918 160.658 13.2559C160.494 13.4473 160.344 13.6523 160.207 13.8711C160.152 13.9531 160.098 14.1445 160.043 14.4453C159.988 14.7461 159.934 15.1973 159.879 15.7988C159.879 15.9902 159.865 16.3867 159.838 16.9883C159.838 17.5898 159.824 18.2871 159.797 19.0801C159.797 19.873 159.783 20.707 159.756 21.582C159.756 22.457 159.742 23.2773 159.715 24.043C159.715 24.7812 159.701 25.4102 159.674 25.9297C159.674 26.4492 159.66 26.75 159.633 26.832C159.578 26.9688 159.441 27.1602 159.223 27.4062C159.004 27.6523 158.758 27.8848 158.484 28.1035C158.211 28.2949 157.951 28.459 157.705 28.5957C157.459 28.7051 157.295 28.6914 157.213 28.5547C157.131 28.4727 157.049 28.1172 156.967 27.4883C156.885 26.8594 156.789 26.0938 156.68 25.1914C156.598 24.2617 156.502 23.25 156.393 22.1562C156.283 21.0625 156.188 20.0098 156.105 18.998C156.023 17.9863 155.955 17.084 155.9 16.291C155.846 15.4707 155.805 14.8828 155.777 14.5273C155.75 14.0078 155.723 13.4336 155.695 12.8047C155.668 12.1758 155.641 11.5879 155.613 11.041C155.613 10.4668 155.613 9.97461 155.613 9.56445C155.641 9.12695 155.695 8.86719 155.777 8.78516C155.832 8.70312 156.01 8.68945 156.311 8.74414C156.639 8.77148 156.98 8.85352 157.336 8.99023C157.719 9.09961 158.074 9.25 158.402 9.44141C158.73 9.63281 158.949 9.81055 159.059 9.97461C159.141 10.1113 159.223 10.3164 159.305 10.5898C159.824 10.3164 160.316 10.0703 160.781 9.85156C161.273 9.60547 161.738 9.42773 162.176 9.31836C162.641 9.20898 163.092 9.18164 163.529 9.23633C163.967 9.26367 164.404 9.40039 164.842 9.64648ZM180.346 11.8203C180.373 12.1211 180.318 12.5859 180.182 13.2148C180.072 13.8438 179.895 14.4727 179.648 15.1016C179.43 15.7305 179.129 16.2773 178.746 16.7422C178.391 17.207 177.98 17.4395 177.516 17.4395C177.188 17.4395 176.914 17.1797 176.695 16.6602C176.504 16.1406 176.354 15.5391 176.244 14.8555C176.162 14.1445 176.094 13.4473 176.039 12.7637C175.984 12.0801 175.93 11.6016 175.875 11.3281C175.793 11.1914 175.629 11.0684 175.383 10.959C175.164 10.8223 174.945 10.7539 174.727 10.7539C174.508 10.7539 174.262 10.9316 173.988 11.2871C173.715 11.6426 173.441 12.0527 173.168 12.5176C172.922 12.9824 172.703 13.4473 172.512 13.9121C172.348 14.377 172.279 14.7188 172.307 14.9375C172.307 15.1016 172.484 15.3887 172.84 15.7988C173.195 16.209 173.633 16.7012 174.152 17.2754C174.699 17.8223 175.273 18.4238 175.875 19.0801C176.504 19.709 177.078 20.3516 177.598 21.0078C178.117 21.6367 178.555 22.2383 178.91 22.8125C179.293 23.3867 179.498 23.8789 179.525 24.2891C179.553 24.7812 179.416 25.4102 179.115 26.1758C178.842 26.9414 178.486 27.6797 178.049 28.3906C177.611 29.1016 177.146 29.7168 176.654 30.2363C176.162 30.7559 175.725 31.0293 175.342 31.0566C174.959 31.084 174.398 30.8789 173.66 30.4414C172.949 29.9766 172.225 29.4434 171.486 28.8418C170.775 28.2129 170.133 27.5977 169.559 26.9961C169.012 26.3945 168.697 25.957 168.615 25.6836C168.533 25.4375 168.479 25.1094 168.451 24.6992C168.451 24.2891 168.465 23.8789 168.492 23.4688C168.547 23.0586 168.629 22.7168 168.738 22.4434C168.848 22.1426 168.984 21.9922 169.148 21.9922C169.312 21.9922 169.641 22.2793 170.133 22.8535C170.625 23.4004 171.158 24.0293 171.732 24.7402C172.307 25.4238 172.867 26.0527 173.414 26.627C173.961 27.1738 174.357 27.4473 174.604 27.4473C174.74 27.4473 174.891 27.3516 175.055 27.1602C175.219 26.9414 175.369 26.6953 175.506 26.4219C175.643 26.1484 175.752 25.875 175.834 25.6016C175.943 25.3008 175.998 25.0684 175.998 24.9043C175.971 24.6582 175.752 24.3027 175.342 23.8379C174.932 23.373 174.412 22.8535 173.783 22.2793C173.154 21.7051 172.471 21.1035 171.732 20.4746C170.994 19.8184 170.311 19.2031 169.682 18.6289C169.053 18.0547 168.533 17.5352 168.123 17.0703C167.713 16.6055 167.494 16.25 167.467 16.0039C167.439 15.7578 167.521 15.375 167.713 14.8555C167.904 14.3086 168.15 13.7207 168.451 13.0918C168.752 12.4355 169.094 11.7656 169.477 11.082C169.887 10.3984 170.297 9.76953 170.707 9.19531C171.117 8.62109 171.514 8.15625 171.896 7.80078C172.307 7.41797 172.662 7.22656 172.963 7.22656C173.564 7.22656 174.275 7.39062 175.096 7.71875C175.943 8.04688 176.75 8.45703 177.516 8.94922C178.281 9.41406 178.938 9.90625 179.484 10.4258C180.031 10.9453 180.318 11.4102 180.346 11.8203ZM185.021 20.1465C185.459 19.9824 185.951 19.8047 186.498 19.6133C187.072 19.3945 187.619 19.2031 188.139 19.0391C188.658 18.8477 189.123 18.6836 189.533 18.5469C189.943 18.4102 190.244 18.3008 190.436 18.2188C190.408 17.918 190.367 17.5762 190.312 17.1934C190.285 16.7832 190.244 16.4004 190.189 16.0449C190.135 15.6621 190.066 15.334 189.984 15.0605C189.902 14.7871 189.82 14.623 189.738 14.5684C189.52 14.4863 189.15 14.418 188.631 14.3633C188.139 14.2812 187.619 14.2949 187.072 14.4043C186.553 14.5137 186.074 14.7188 185.637 15.0195C185.199 15.3203 184.953 15.7988 184.898 16.4551C184.844 16.8926 184.83 17.4395 184.857 18.0957C184.885 18.752 184.939 19.4355 185.021 20.1465ZM193.922 20.8027C193.895 20.8574 193.566 20.9668 192.938 21.1309C192.309 21.2949 191.557 21.4727 190.682 21.6641C189.807 21.8281 188.877 22.0059 187.893 22.1973C186.908 22.3613 186.061 22.498 185.35 22.6074C185.486 23.7012 185.65 24.6855 185.842 25.5605C186.033 26.4082 186.197 26.9414 186.334 27.1602C186.471 27.3516 186.648 27.5293 186.867 27.6934C187.059 27.8301 187.291 27.9668 187.564 28.1035C187.865 28.2129 188.221 28.2949 188.631 28.3496C188.932 28.4316 189.219 28.3223 189.492 28.0215C189.711 27.748 189.902 27.2695 190.066 26.5859C190.258 25.9023 190.354 24.8223 190.354 23.3457C191.201 23.209 191.857 23.127 192.322 23.0996C192.814 23.0723 193.17 23.0723 193.389 23.0996C193.662 23.127 193.826 23.168 193.881 23.2227C193.908 23.3047 193.908 23.5098 193.881 23.8379C193.854 24.166 193.785 24.5762 193.676 25.0684C193.594 25.5332 193.484 26.0527 193.348 26.627C193.238 27.1738 193.102 27.707 192.938 28.2266C192.773 28.7188 192.596 29.1699 192.404 29.5801C192.213 29.9629 192.008 30.2363 191.789 30.4004C191.133 30.8926 190.312 31.1387 189.328 31.1387C188.344 31.1113 187.373 30.9746 186.416 30.7285C185.459 30.4551 184.598 30.1406 183.832 29.7852C183.066 29.4023 182.588 29.0879 182.396 28.8418C182.26 28.6777 182.137 28.2676 182.027 27.6113C181.918 26.9277 181.822 26.1074 181.74 25.1504C181.686 24.1934 181.645 23.1406 181.617 21.9922C181.59 20.8438 181.604 19.7227 181.658 18.6289C181.74 17.5352 181.85 16.5234 181.986 15.5938C182.15 14.6641 182.369 13.9121 182.643 13.3379C183.053 12.5176 183.723 11.8477 184.652 11.3281C185.582 10.8086 186.566 10.4531 187.605 10.2617C188.645 10.0703 189.629 10.043 190.559 10.1797C191.516 10.3164 192.227 10.6172 192.691 11.082C192.965 11.3555 193.211 11.9023 193.43 12.7227C193.648 13.5156 193.785 14.4863 193.84 15.6348C193.84 15.7441 193.854 16.0586 193.881 16.5781C193.908 17.0977 193.922 17.6582 193.922 18.2598C193.949 18.834 193.963 19.3809 193.963 19.9004C193.963 20.4199 193.949 20.7207 193.922 20.8027Z" fill="white"/>
<path d="M0 36.1836H195.193V38.2754H0V36.1836Z" fill="white"/>
</svg>
