<svg width="170" height="55" viewBox="0 0 232 87" fill="none" xmlns="http://www.w3.org/2000/svg">
<path d="M72.5 10.875H14.5C10.5016 10.875 7.25 14.1266 7.25 18.125V68.875C7.25 72.8734 10.5016 76.125 14.5 76.125H72.5C76.4984 76.125 79.75 72.8734 79.75 68.875V18.125C79.75 14.1266 76.4984 10.875 72.5 10.875ZM72.5036 32.625C72.5 32.625 72.5 32.625 72.5036 32.625H70.818L61.1501 18.125H72.5L72.5036 32.625ZM56.1875 54.375L36.25 65.25V43.5L56.1875 54.375ZM52.693 32.625L43.0251 18.125H52.4356L62.1035 32.625H52.693V32.625ZM43.9785 32.625H34.568L24.9001 18.125H34.3106L43.9785 32.625ZM14.5 18.125H16.1856L25.8535 32.625H14.5V18.125Z" fill="#E50914"/>
<path d="M104.965 31.7188C105.484 32.1562 105.867 33.0312 106.113 34.3438C106.359 35.6289 106.455 37.0645 106.4 38.6504C106.373 39.1426 106.305 39.8262 106.195 40.7012C106.086 41.5488 105.949 42.4922 105.785 43.5312C105.648 44.543 105.484 45.582 105.293 46.6484C105.129 47.7148 104.965 48.6992 104.801 49.6016C104.637 50.5039 104.486 51.2695 104.35 51.8984C104.24 52.5 104.172 52.8555 104.145 52.9648C104.09 53.1562 103.939 53.3477 103.693 53.5391C103.447 53.7305 103.188 53.8945 102.914 54.0312C102.668 54.1406 102.422 54.2227 102.176 54.2773C101.93 54.3047 101.779 54.25 101.725 54.1133C101.697 54.0312 101.697 53.6074 101.725 52.8418C101.752 52.0762 101.793 51.1328 101.848 50.0117C101.902 48.8633 101.957 47.6465 102.012 46.3613C102.094 45.0488 102.162 43.8184 102.217 42.6699C102.271 41.5215 102.326 40.5508 102.381 39.7578C102.436 38.9375 102.463 38.4453 102.463 38.2812C102.49 37.4336 102.422 36.6953 102.258 36.0664C102.094 35.4102 101.82 35.082 101.438 35.082C101.301 35.082 101.137 35.1504 100.945 35.2871C100.754 35.3965 100.562 35.5332 100.371 35.6973C100.207 35.8613 100.043 36.0391 99.8789 36.2305C99.7422 36.4219 99.6738 36.5996 99.6738 36.7637C99.6465 37.2559 99.6055 37.9805 99.5508 38.9375C99.5234 39.8945 99.4824 40.9473 99.4277 42.0957C99.4004 43.2441 99.3594 44.4199 99.3047 45.623C99.2773 46.8262 99.2363 47.9336 99.1816 48.9453C99.1543 49.957 99.127 50.8047 99.0996 51.4883C99.0723 52.1445 99.0449 52.5137 99.0176 52.5957C98.9629 52.7051 98.7852 52.7871 98.4844 52.8418C98.2109 52.8691 97.8965 52.8691 97.541 52.8418C97.1855 52.8145 96.8574 52.7461 96.5566 52.6367C96.2832 52.5273 96.1191 52.377 96.0645 52.1855C96.0098 52.0488 95.9688 51.6387 95.9414 50.9551C95.9141 50.2441 95.873 49.3965 95.8184 48.4121C95.791 47.4277 95.7637 46.375 95.7363 45.2539C95.709 44.1055 95.6816 43.0391 95.6543 42.0547C95.627 41.0703 95.5996 40.2227 95.5723 39.5117C95.5723 38.8008 95.5723 38.3633 95.5723 38.1992C95.5723 37.543 95.5176 37.0234 95.4082 36.6406C95.2988 36.2305 95.1621 35.916 94.998 35.6973C94.8613 35.4512 94.6973 35.3008 94.5059 35.2461C94.3145 35.1641 94.123 35.123 93.9316 35.123C93.8496 35.123 93.7266 35.1914 93.5625 35.3281C93.3984 35.4375 93.2344 35.6152 93.0703 35.8613C92.9062 36.0801 92.7695 36.3398 92.6602 36.6406C92.5508 36.9141 92.5098 37.2148 92.5371 37.543C92.5371 37.6797 92.5508 38.1855 92.5781 39.0605C92.6055 39.9355 92.6191 40.9883 92.6191 42.2188C92.6465 43.4492 92.6738 44.7754 92.7012 46.1973C92.7285 47.6191 92.7422 48.9453 92.7422 50.1758C92.7695 51.3789 92.7832 52.4043 92.7832 53.252C92.7832 54.0723 92.7832 54.5098 92.7832 54.5645C92.7285 54.7012 92.5781 54.7832 92.332 54.8105C92.0859 54.8105 91.8125 54.7559 91.5117 54.6465C91.2109 54.5371 90.9238 54.3867 90.6504 54.1953C90.377 53.9766 90.1855 53.7168 90.0762 53.416C90.0215 53.1973 89.9395 52.7188 89.8301 51.9805C89.7207 51.2422 89.5977 50.3672 89.4609 49.3555C89.3242 48.3164 89.1875 47.209 89.0508 46.0332C88.9141 44.8301 88.7773 43.6816 88.6406 42.5879C88.5039 41.4668 88.3809 40.4551 88.2715 39.5527C88.1895 38.6504 88.1211 37.9668 88.0664 37.502C87.9844 36.8457 87.8887 36.1348 87.7793 35.3691C87.6973 34.5762 87.6152 33.8242 87.5332 33.1133C87.4785 32.375 87.4375 31.7461 87.4102 31.2266C87.3828 30.6797 87.4102 30.3379 87.4922 30.2012C87.5469 30.0918 87.7383 30.0508 88.0664 30.0781C88.4219 30.1055 88.791 30.1875 89.1738 30.3242C89.584 30.4336 89.9668 30.5977 90.3223 30.8164C90.7051 31.0078 90.9512 31.2129 91.0605 31.4316C91.1426 31.5957 91.2246 31.8008 91.3066 32.0469C91.416 32.2656 91.5254 32.6211 91.6348 33.1133C92.0996 32.7578 92.5781 32.4297 93.0703 32.1289C93.5625 31.8008 94.0547 31.5547 94.5469 31.3906C95.0391 31.1992 95.5039 31.1035 95.9414 31.1035C96.4062 31.0762 96.8438 31.1992 97.2539 31.4727C97.6094 31.7461 97.9512 32.2246 98.2793 32.9082C99.5918 32.1699 100.85 31.6641 102.053 31.3906C103.283 31.0898 104.254 31.1992 104.965 31.7188ZM117.557 33.6465C117.775 33.7832 117.98 34.0566 118.172 34.4668C118.391 34.8496 118.582 35.3008 118.746 35.8203C118.938 36.3125 119.088 36.8457 119.197 37.4199C119.334 37.9941 119.443 38.5273 119.525 39.0195C119.635 39.5117 119.703 39.9355 119.73 40.291C119.758 40.6191 119.758 40.8242 119.73 40.9062C119.676 41.0156 119.512 41.125 119.238 41.2344C118.992 41.3438 118.623 41.4668 118.131 41.6035C117.639 41.7402 116.955 41.8906 116.08 42.0547C116.025 40.5508 115.916 39.416 115.752 38.6504C115.588 37.8574 115.41 37.2969 115.219 36.9688C115 36.5859 114.768 36.3945 114.521 36.3945C114.275 36.5039 114.057 36.6406 113.865 36.8047C113.674 36.9414 113.51 37.0918 113.373 37.2559C113.209 37.4473 113.059 37.6523 112.922 37.8711C112.867 37.9531 112.812 38.1445 112.758 38.4453C112.703 38.7461 112.648 39.1973 112.594 39.7988C112.594 39.9902 112.58 40.3867 112.553 40.9883C112.553 41.5898 112.539 42.2871 112.512 43.0801C112.512 43.873 112.498 44.707 112.471 45.582C112.471 46.457 112.457 47.2773 112.43 48.043C112.43 48.7812 112.416 49.4102 112.389 49.9297C112.389 50.4492 112.375 50.75 112.348 50.832C112.293 50.9688 112.156 51.1602 111.938 51.4062C111.719 51.6523 111.473 51.8848 111.199 52.1035C110.926 52.2949 110.666 52.459 110.42 52.5957C110.174 52.7051 110.01 52.6914 109.928 52.5547C109.846 52.4727 109.764 52.1172 109.682 51.4883C109.6 50.8594 109.504 50.0938 109.395 49.1914C109.312 48.2617 109.217 47.25 109.107 46.1562C108.998 45.0625 108.902 44.0098 108.82 42.998C108.738 41.9863 108.67 41.084 108.615 40.291C108.561 39.4707 108.52 38.8828 108.492 38.5273C108.465 38.0078 108.438 37.4336 108.41 36.8047C108.383 36.1758 108.355 35.5879 108.328 35.041C108.328 34.4668 108.328 33.9746 108.328 33.5645C108.355 33.127 108.41 32.8672 108.492 32.7852C108.547 32.7031 108.725 32.6895 109.025 32.7441C109.354 32.7715 109.695 32.8535 110.051 32.9902C110.434 33.0996 110.789 33.25 111.117 33.4414C111.445 33.6328 111.664 33.8105 111.773 33.9746C111.855 34.1113 111.938 34.3164 112.02 34.5898C112.539 34.3164 113.031 34.0703 113.496 33.8516C113.988 33.6055 114.453 33.4277 114.891 33.3184C115.355 33.209 115.807 33.1816 116.244 33.2363C116.682 33.2637 117.119 33.4004 117.557 33.6465ZM140.812 27.6992C140.867 27.8086 140.895 28.1914 140.895 28.8477C140.922 29.5039 140.922 30.2969 140.895 31.2266C140.895 32.1562 140.867 33.1543 140.812 34.2207C140.758 35.2598 140.689 36.2441 140.607 37.1738C140.553 37.6934 140.457 38.4727 140.32 39.5117C140.211 40.5508 140.074 41.6992 139.91 42.957C139.746 44.2148 139.568 45.5137 139.377 46.8535C139.213 48.166 139.049 49.3828 138.885 50.5039C138.721 51.5977 138.57 52.5137 138.434 53.252C138.324 53.9902 138.242 54.3867 138.188 54.4414C138.078 54.5234 137.9 54.7285 137.654 55.0566C137.408 55.3574 137.135 55.6719 136.834 56C136.561 56.3008 136.301 56.5469 136.055 56.7383C135.809 56.9297 135.645 56.957 135.562 56.8203C135.508 56.5469 135.48 55.6992 135.48 54.2773C135.48 53.6758 135.48 52.9238 135.48 52.0215C135.508 51.0918 135.535 49.9707 135.562 48.6582C135.617 47.3457 135.686 45.8145 135.768 44.0645C135.85 42.3145 135.945 40.291 136.055 37.9941C135.508 39.8535 135.016 41.4941 134.578 42.916C134.168 44.3379 133.799 45.582 133.471 46.6484C133.17 47.6875 132.91 48.5762 132.691 49.3145C132.473 50.0254 132.281 50.6133 132.117 51.0781C131.762 52.1719 131.529 52.8145 131.42 53.0059C131.311 53.0332 131.133 52.9512 130.887 52.7598C130.668 52.5684 130.408 52.2949 130.107 51.9395C129.834 51.5566 129.547 51.1055 129.246 50.5859C128.973 50.0664 128.74 49.4922 128.549 48.8633C128.357 48.2891 128.111 47.5234 127.811 46.5664C127.537 45.7461 127.182 44.6797 126.744 43.3672C126.307 42.0273 125.773 40.3594 125.145 38.3633C125.309 40.6055 125.445 42.5742 125.555 44.2695C125.664 45.9648 125.746 47.4414 125.801 48.6992C125.883 49.957 125.938 51.0234 125.965 51.8984C126.02 52.7461 126.047 53.457 126.047 54.0312C126.074 55.3438 126.033 56.0957 125.924 56.2871C125.65 56.2871 125.35 56.1641 125.021 55.918C124.721 55.6445 124.42 55.3301 124.119 54.9746C123.846 54.5918 123.6 54.2227 123.381 53.8672C123.189 53.5117 123.08 53.252 123.053 53.0879C123.025 52.9785 122.943 52.4727 122.807 51.5703C122.67 50.668 122.506 49.5195 122.314 48.125C122.15 46.7031 121.959 45.1172 121.74 43.3672C121.549 41.5898 121.357 39.7852 121.166 37.9531C121.002 36.1211 120.865 34.3438 120.756 32.6211C120.646 30.8711 120.592 29.3125 120.592 27.9453C120.592 27.7266 120.865 27.4395 121.412 27.084C121.959 26.7012 122.574 26.3457 123.258 26.0176C123.969 25.6621 124.625 25.3613 125.227 25.1152C125.828 24.8418 126.197 24.7051 126.334 24.7051C126.443 24.7051 126.553 25.0195 126.662 25.6484C126.799 26.2773 126.949 27.0703 127.113 28.0273C127.277 28.9844 127.455 30.0508 127.646 31.2266C127.838 32.4023 128.057 33.5234 128.303 34.5898C128.494 35.6836 128.727 36.8184 129 37.9941C129.219 39.0059 129.465 40.127 129.738 41.3574C130.039 42.5605 130.367 43.7363 130.723 44.8848C131.105 43.2168 131.447 41.7129 131.748 40.373C132.076 39.0059 132.363 37.8438 132.609 36.8867C132.91 35.7656 133.17 34.7676 133.389 33.8926C133.881 31.7598 134.359 30.0781 134.824 28.8477C135.316 27.6172 135.631 26.8926 135.768 26.6738C135.85 26.5645 136.137 26.5371 136.629 26.5918C137.148 26.6465 137.709 26.7422 138.311 26.8789C138.912 26.9883 139.459 27.125 139.951 27.2891C140.471 27.4531 140.758 27.5898 140.812 27.6992ZM151.764 33.5645C151.955 33.7285 152.133 34.043 152.297 34.5078C152.488 34.9727 152.652 35.5332 152.789 36.1895C152.926 36.8457 153.049 37.5566 153.158 38.3223C153.268 39.0879 153.363 39.8398 153.445 40.5781C153.527 41.3164 153.582 42.0137 153.609 42.6699C153.664 43.2988 153.705 43.8184 153.732 44.2285C153.76 44.7207 153.773 45.2402 153.773 45.7871C153.801 46.3066 153.801 46.8125 153.773 47.3047C153.773 47.7695 153.746 48.1934 153.691 48.5762C153.664 48.959 153.609 49.2461 153.527 49.4375C153.363 49.8477 153.076 50.1348 152.666 50.2988C152.283 50.4355 151.846 50.5312 151.354 50.5859C151.107 50.6133 150.684 50.627 150.082 50.627C149.508 50.5996 148.879 50.5723 148.195 50.5449C147.539 50.4902 146.91 50.4355 146.309 50.3809C145.707 50.3262 145.256 50.2715 144.955 50.2168C144.354 50.0801 143.916 49.9023 143.643 49.6836C143.396 49.4648 143.15 49.1504 142.904 48.7402C142.822 48.5762 142.754 48.166 142.699 47.5098C142.645 46.8262 142.604 46.0195 142.576 45.0898C142.576 44.1328 142.59 43.1074 142.617 42.0137C142.645 40.9199 142.686 39.8809 142.74 38.8965C142.822 37.9121 142.904 37.0508 142.986 36.3125C143.096 35.5742 143.232 35.082 143.396 34.8359C143.67 34.4531 144.135 34.0977 144.791 33.7695C145.475 33.4414 146.09 33.1816 146.637 32.9902C146.91 32.9082 147.266 32.8535 147.703 32.8262C148.168 32.7715 148.646 32.7715 149.139 32.8262C149.658 32.8535 150.15 32.9355 150.615 33.0723C151.08 33.1816 151.463 33.3457 151.764 33.5645ZM149.467 46.2793C149.521 46.1699 149.576 45.8418 149.631 45.2949C149.713 44.7207 149.768 44.0371 149.795 43.2441C149.85 42.4512 149.877 41.6035 149.877 40.7012C149.904 39.7988 149.918 38.9648 149.918 38.1992C149.918 37.4336 149.891 36.791 149.836 36.2715C149.781 35.7246 149.713 35.4102 149.631 35.3281C149.494 35.2188 149.289 35.1777 149.016 35.2051C148.77 35.2051 148.51 35.2461 148.236 35.3281C147.963 35.3828 147.717 35.4648 147.498 35.5742C147.279 35.6562 147.129 35.7383 147.047 35.8203C146.691 36.1211 146.5 36.6133 146.473 37.2969C146.473 37.4883 146.445 38.0352 146.391 38.9375C146.363 39.8125 146.35 40.7695 146.35 41.8086C146.35 42.8203 146.363 43.7637 146.391 44.6387C146.445 45.5137 146.541 46.0469 146.678 46.2383C146.814 46.4297 147.006 46.5801 147.252 46.6895C147.525 46.7715 147.799 46.8125 148.072 46.8125C148.373 46.8125 148.646 46.7715 148.893 46.6895C149.166 46.5801 149.357 46.4434 149.467 46.2793ZM158.531 50.873C158.148 49.4785 157.725 47.8379 157.26 45.9512C156.877 44.3379 156.412 42.3828 155.865 40.0859C155.346 37.7617 154.785 35.1094 154.184 32.1289C154.184 31.9375 154.307 31.7051 154.553 31.4316C154.771 31.1309 155.045 30.8574 155.373 30.6113C155.701 30.3379 156.043 30.1191 156.398 29.9551C156.754 29.7637 157.068 29.668 157.342 29.668C157.451 29.832 157.643 30.5566 157.916 31.8418C158.025 32.3887 158.148 33.0859 158.285 33.9336C158.449 34.7539 158.627 35.7793 158.818 37.0098C159.01 38.2402 159.215 39.6895 159.434 41.3574C159.68 42.998 159.953 44.8984 160.254 47.0586C160.473 45.582 160.678 44.1875 160.869 42.875C161.088 41.5625 161.279 40.4004 161.443 39.3887C161.635 38.2129 161.812 37.1191 161.977 36.1074C162.059 35.4785 162.154 34.8223 162.264 34.1387C162.373 33.4277 162.482 32.7852 162.592 32.2109C162.729 31.6367 162.865 31.1582 163.002 30.7754C163.166 30.3652 163.33 30.1602 163.494 30.1602C163.658 30.1602 163.904 30.2012 164.232 30.2832C164.561 30.3379 164.889 30.4199 165.217 30.5293C165.572 30.6387 165.887 30.7754 166.16 30.9395C166.434 31.0762 166.57 31.2266 166.57 31.3906C166.57 31.4727 166.488 31.8828 166.324 32.6211C166.16 33.332 165.941 34.248 165.668 35.3691C165.395 36.4902 165.08 37.7617 164.725 39.1836C164.369 40.5781 164 42 163.617 43.4492C163.262 44.8984 162.893 46.3203 162.51 47.7148C162.127 49.1094 161.771 50.3535 161.443 51.4473C161.143 52.5137 160.883 53.3887 160.664 54.0723C160.445 54.7285 160.295 55.0566 160.213 55.0566C160.131 55.0566 159.898 54.6875 159.516 53.9492C159.16 53.1836 158.832 52.1582 158.531 50.873ZM171.287 38.3633C171.342 38.5 171.369 38.9375 171.369 39.6758C171.396 40.3867 171.396 41.2617 171.369 42.3008C171.369 43.3125 171.342 44.4062 171.287 45.582C171.232 46.7305 171.164 47.8242 171.082 48.8633C171.027 49.875 170.959 50.75 170.877 51.4883C170.795 52.1992 170.713 52.623 170.631 52.7598C170.385 53.1426 170.016 53.3887 169.523 53.498C169.031 53.5801 168.676 53.5938 168.457 53.5391C168.348 53.5391 168.225 53.2246 168.088 52.5957C167.979 51.9668 167.869 51.1738 167.76 50.2168C167.65 49.2598 167.555 48.2207 167.473 47.0996C167.391 45.9785 167.322 44.9121 167.268 43.9004C167.213 42.8613 167.186 41.959 167.186 41.1934C167.186 40.4277 167.213 39.9355 167.268 39.7168C167.35 39.3613 167.582 39.0469 167.965 38.7734C168.375 38.5 168.799 38.2949 169.236 38.1582C169.701 38.0215 170.125 37.9668 170.508 37.9941C170.918 37.9941 171.178 38.1172 171.287 38.3633ZM171.492 31.7188C171.602 31.9375 171.643 32.2383 171.615 32.6211C171.615 33.0039 171.574 33.4004 171.492 33.8105C171.41 34.2207 171.301 34.6172 171.164 35C171.027 35.3828 170.891 35.6836 170.754 35.9023C170.48 36.2852 170.07 36.5312 169.523 36.6406C169.004 36.7227 168.621 36.7363 168.375 36.6816C168.184 36.6543 167.992 36.5312 167.801 36.3125C167.609 36.0664 167.445 35.7793 167.309 35.4512C167.172 35.0957 167.076 34.7129 167.021 34.3027C166.967 33.8926 166.98 33.5098 167.062 33.1543C167.145 32.7988 167.404 32.4844 167.842 32.2109C168.279 31.9102 168.744 31.6914 169.236 31.5547C169.729 31.3906 170.193 31.3223 170.631 31.3496C171.068 31.3496 171.355 31.4727 171.492 31.7188ZM177.562 44.1465C178 43.9824 178.492 43.8047 179.039 43.6133C179.613 43.3945 180.16 43.2031 180.68 43.0391C181.199 42.8477 181.664 42.6836 182.074 42.5469C182.484 42.4102 182.785 42.3008 182.977 42.2188C182.949 41.918 182.908 41.5762 182.854 41.1934C182.826 40.7832 182.785 40.4004 182.73 40.0449C182.676 39.6621 182.607 39.334 182.525 39.0605C182.443 38.7871 182.361 38.623 182.279 38.5684C182.061 38.4863 181.691 38.418 181.172 38.3633C180.68 38.2812 180.16 38.2949 179.613 38.4043C179.094 38.5137 178.615 38.7188 178.178 39.0195C177.74 39.3203 177.494 39.7988 177.439 40.4551C177.385 40.8926 177.371 41.4395 177.398 42.0957C177.426 42.752 177.48 43.4355 177.562 44.1465ZM186.463 44.8027C186.436 44.8574 186.107 44.9668 185.479 45.1309C184.85 45.2949 184.098 45.4727 183.223 45.6641C182.348 45.8281 181.418 46.0059 180.434 46.1973C179.449 46.3613 178.602 46.498 177.891 46.6074C178.027 47.7012 178.191 48.6855 178.383 49.5605C178.574 50.4082 178.738 50.9414 178.875 51.1602C179.012 51.3516 179.189 51.5293 179.408 51.6934C179.6 51.8301 179.832 51.9668 180.105 52.1035C180.406 52.2129 180.762 52.2949 181.172 52.3496C181.473 52.4316 181.76 52.3223 182.033 52.0215C182.252 51.748 182.443 51.2695 182.607 50.5859C182.799 49.9023 182.895 48.8223 182.895 47.3457C183.742 47.209 184.398 47.127 184.863 47.0996C185.355 47.0723 185.711 47.0723 185.93 47.0996C186.203 47.127 186.367 47.168 186.422 47.2227C186.449 47.3047 186.449 47.5098 186.422 47.8379C186.395 48.166 186.326 48.5762 186.217 49.0684C186.135 49.5332 186.025 50.0527 185.889 50.627C185.779 51.1738 185.643 51.707 185.479 52.2266C185.314 52.7188 185.137 53.1699 184.945 53.5801C184.754 53.9629 184.549 54.2363 184.33 54.4004C183.674 54.8926 182.854 55.1387 181.869 55.1387C180.885 55.1113 179.914 54.9746 178.957 54.7285C178 54.4551 177.139 54.1406 176.373 53.7852C175.607 53.4023 175.129 53.0879 174.938 52.8418C174.801 52.6777 174.678 52.2676 174.568 51.6113C174.459 50.9277 174.363 50.1074 174.281 49.1504C174.227 48.1934 174.186 47.1406 174.158 45.9922C174.131 44.8438 174.145 43.7227 174.199 42.6289C174.281 41.5352 174.391 40.5234 174.527 39.5938C174.691 38.6641 174.91 37.9121 175.184 37.3379C175.594 36.5176 176.264 35.8477 177.193 35.3281C178.123 34.8086 179.107 34.4531 180.146 34.2617C181.186 34.0703 182.17 34.043 183.1 34.1797C184.057 34.3164 184.768 34.6172 185.232 35.082C185.506 35.3555 185.752 35.9023 185.971 36.7227C186.189 37.5156 186.326 38.4863 186.381 39.6348C186.381 39.7441 186.395 40.0586 186.422 40.5781C186.449 41.0977 186.463 41.6582 186.463 42.2598C186.49 42.834 186.504 43.3809 186.504 43.9004C186.504 44.4199 186.49 44.7207 186.463 44.8027Z" fill="white"/>
<path d="M87 60.1836H187.734V62.2754H87V60.1836Z" fill="white"/>
</svg>
