<svg width="169" height="44" viewBox="0 0 492 455" fill="none" xmlns="http://www.w3.org/2000/svg">
<path d="M410 24.5H82C59.3885 24.5 41 42.8885 41 65.5V352.5C41 375.112 59.3885 393.5 82 393.5H410C432.612 393.5 451 375.112 451 352.5V65.5C451 42.8885 432.612 24.5 410 24.5ZM410.02 147.5C410 147.5 410 147.5 410.02 147.5H400.488L345.814 65.5H410L410.02 147.5ZM317.75 270.5L205 332V209L317.75 270.5ZM297.988 147.5L243.315 65.5H296.533L351.206 147.5H297.988V147.5ZM248.706 147.5H195.488L140.814 65.5H194.033L248.706 147.5ZM82 65.5H91.5325L146.206 147.5H82V65.5Z" fill="#E50914"/>
</svg>
